<svg xmlns="http://www.w3.org/2000/svg" width="234" height="315" fill="none"><mask id="a" width="173" height="290" x="31" y="18" maskUnits="userSpaceOnUse" style="mask-type:alpha"><path fill="#fff" d="M94.185 21.6a3.6 3.6 0 0 0-4.2-3.548l-55.988 9.506A3.6 3.6 0 0 0 31 31.107V303.69a3.6 3.6 0 0 0 3.6 3.6h55.985a3.6 3.6 0 0 0 3.6-3.6V201.653c0-31.086 16.485-50.343 30.221-50.343 12.362 0 15.933 12.381 15.933 31.086v121.295a3.6 3.6 0 0 0 3.6 3.6H200.2a3.6 3.6 0 0 0 3.6-3.6V173.319c0-42.365-15.934-69.6-57.416-69.6-16.65 0-32.899 4.008-45.845 12.882-2.57 1.762-6.354.027-6.354-3.092z"/></mask><g mask="url(#a)"><path fill="#EC3750" d="M244 0H-28v342h272z"/><path fill="#000" fill-opacity=".01" d="M94.185 21.6a3.6 3.6 0 0 0-4.2-3.548l-55.988 9.506A3.6 3.6 0 0 0 31 31.107V303.69a3.6 3.6 0 0 0 3.6 3.6h55.985a3.6 3.6 0 0 0 3.6-3.6V201.653c0-31.086 16.485-50.343 30.221-50.343 12.362 0 15.933 12.381 15.933 31.086v121.295a3.6 3.6 0 0 0 3.6 3.6H200.2a3.6 3.6 0 0 0 3.6-3.6V173.319c0-42.365-15.934-69.6-57.416-69.6-16.65 0-32.899 4.008-45.845 12.882-2.57 1.762-6.354.027-6.354-3.092z"/></g></svg>
